<?xml version="1.0" standalone="no"?><!DOCTYPE svg PUBLIC "-//W3C//DTD SVG 1.1//EN" "http://www.w3.org/Graphics/SVG/1.1/DTD/svg11.dtd"><svg t="1598424350248" class="icon" viewBox="0 0 1024 1024" version="1.1" xmlns="http://www.w3.org/2000/svg" p-id="6112" xmlns:xlink="http://www.w3.org/1999/xlink" width="200" height="200"><defs><style type="text/css"></style></defs><path d="M303.146667 648.96A128.042667 128.042667 0 1 1 213.333333 647.253333V376.746667a128.042667 128.042667 0 1 1 85.333334 0V512c35.669333-26.794667 79.957333-42.666667 128-42.666667h170.666666a128.042667 128.042667 0 0 0 123.52-94.293333 128.042667 128.042667 0 1 1 86.698667 2.730667A213.376 213.376 0 0 1 597.333333 554.666667h-170.666666a128.042667 128.042667 0 0 0-123.52 94.293333zM256 725.333333a42.666667 42.666667 0 1 0 0 85.333334 42.666667 42.666667 0 0 0 0-85.333334zM256 213.333333a42.666667 42.666667 0 1 0 0 85.333334 42.666667 42.666667 0 0 0 0-85.333334z m512 0a42.666667 42.666667 0 1 0 0 85.333334 42.666667 42.666667 0 0 0 0-85.333334z" p-id="6113" fill="#999999"></path></svg>