<?xml version="1.0" standalone="no"?><!DOCTYPE svg PUBLIC "-//W3C//DTD SVG 1.1//EN" "http://www.w3.org/Graphics/SVG/1.1/DTD/svg11.dtd"><svg t="1598443235355" class="icon" viewBox="0 0 1024 1024" version="1.1" xmlns="http://www.w3.org/2000/svg" p-id="2058" width="300" height="300" xmlns:xlink="http://www.w3.org/1999/xlink"><defs><style type="text/css"></style></defs><path d="M813.684994 537.618471c0-73.646324-57.892525-134.022413-130.558522-138.036843-30.397311-67.723428-98.29163-112.254643-173.414585-112.254644-20.515243 0-40.452317 3.430122-59.277058 9.642615-131.389446-81.563644-302.074873-151.939481-355.342054-84.465741-14.119579 17.911952-18.029632 42.085514-11.583826 71.868841l7.300266-1.579984-4.162809 2.403746c-6.013971 3.464915-9.753131 9.949606-9.753132 16.891715v38.411845c0 6.942109 3.739161 13.426801 9.753132 16.891715l33.287127 19.218714c2.116197 1.214664 4.429893 1.845021 6.776334 2.205225 22.438035 34.997072 52.305273 72.635297 87.730087 110.945835-5.536087 14.935154-8.688893 31.018457-8.688893 47.855937 0 94.396927 83.269495 146.984632 247.222591 156.976195 73.104995 50.519604 145.441487 90.707908 209.443149 115.854634 47.668673 18.72241 87.97568 28.083615 120.072703 28.083615 32.070416 0 55.930847-9.361205 70.678736-28.057009 22.916942-29.049616 30.694069-87.980797-57.609069-203.662493 12.078083-19.750833 18.125823-42.781362 18.125823-69.193918zM650.925073 427.063539l5.569855 15.623839 20.422122-3.137457c53.407374 0.797156 96.604198 44.491307 96.604199 98.06855 0 29.364795 0 118.699426-260.083504 118.699425-16.420995 0-31.836079-0.458441-46.756907-1.140986-22.248723-15.637142-44.562938-32.159444-66.725704-49.63956-50.362015-39.733956-96.863095-81.622996-137.037072-122.999359 17.426905-25.574469 46.594201-42.536792 79.707366-42.990116l20.382213 2.902096 5.517667-15.440667c21.23258-59.526745 77.973886-99.520621 141.187603-99.520621 63.251579 0.002047 119.992885 40.021505 141.212162 99.574856z m-557.584198-81.255629a6.16542 6.16542 0 0 1-3.059686-5.307889v-38.411845a6.164397 6.164397 0 0 1 3.059686-5.307889l33.260521-19.205411a6.152117 6.152117 0 0 1 6.131651-0.013303l33.287127 19.232017a6.115278 6.115278 0 0 1 3.046383 5.294586v38.411845a6.135744 6.135744 0 0 1-3.059686 5.307889l-33.273824 19.205411a6.219655 6.219655 0 0 1-6.118348 0l-33.273824-19.205411z m70.667479 16.60519l8.67866-5.008061c6.027274-3.464915 9.766434-9.949606 9.766435-16.905018v-38.411845c0-6.955412-3.739161-13.440104-9.753132-16.891715l-33.273824-19.218714c-5.640464-3.2623-12.528338-3.343141-18.329461-0.48607-1.023306-9.975189-0.267083-20.757766 5.529947-28.107152 22.961968-29.045523 134.922922-5.685489 280.328593 80.252789-30.482245 19.61985-55.337329 47.829332-70.659293 81.944314-41.104163 2.269693-77.453023 22.592554-101.296057 53.131081-28.107151-31.171953-52.127218-61.647035-70.991868-90.299609z m81.907475 175.205371c0-4.764514 0.456395-9.414417 1.115404-13.997806 38.382169 38.399565 81.686441 76.873832 128.056537 113.452935 4.495384 3.546779 9.025561 6.876618 13.534248 10.353812-94.662986-15.727193-142.706189-52.405557-142.706189-109.808941z m575.718207 247.989047c-12.865006 16.303314-57.591673 21.598924-144.521534-12.538571-45.833885-18.008142-96.352465-44.39-148.406005-76.842109 115.01143-1.584078 194.643072-20.933775 239.84046-58.719356 51.92665 69.663616 71.777767 124.398218 53.087079 148.100036zM936.765193 462.820927l-36.385698-20.997219a20.778232 20.778232 0 0 0-20.696368 0l-36.385699 20.997219h-0.013303c-6.367011 3.700275-10.328229 10.56359-10.328229 17.924232v42.006719c0 7.373944 3.961218 14.250562 10.341532 17.924232l36.385699 21.010522a20.693298 20.693298 0 0 0 20.696368 0l36.385698-21.010522c6.380314-3.673669 10.341532-10.55131 10.341533-17.924232v-42.006719c0-7.360641-3.962242-14.223956-10.341533-17.924232z m-3.046382 59.931975a7.346315 7.346315 0 0 1-3.648087 6.341428l-36.385698 21.010523c-2.222621 1.281179-5.033643 1.294482-7.308453 0l-36.385699-21.010523a7.345292 7.345292 0 0 1-3.648086-6.341428v-42.00672a7.347339 7.347339 0 0 1 3.660366-6.341428l36.372395-20.99722a7.496741 7.496741 0 0 1 7.308453 0l36.372396 20.99722a7.347339 7.347339 0 0 1 3.660366 6.341428v42.00672z" p-id="2059" fill="#ff6a00"></path><path d="M896.120494 504.399905a13.906731 13.906731 0 0 0 7.782244-12.494569c0-7.67889-6.211469-13.903661-13.871939-13.903661-7.662517 0-13.872962 6.224772-13.872962 13.903661a13.905708 13.905708 0 0 0 7.783267 12.494569c-8.521071 2.609431-14.719236 10.55131-14.719236 19.946284 0 0.638543 0.51677 1.158383 1.155312 1.158383s1.156336-0.518816 1.156336-1.158383c0-10.238179 8.280594-18.538215 18.497283-18.538215 10.214642 0 18.49626 8.300037 18.49626 18.538215a1.157359 1.157359 0 1 0 2.312672 0c0-9.394974-6.199189-17.336854-14.719237-19.946284z m-17.661241-12.494569c0-6.405897 5.180999-11.597129 11.572569-11.597129 6.389524 0 11.5695 5.192256 11.5695 11.597129s-5.179976 11.597129-11.5695 11.597129c-6.392594 0-11.57257-5.192256-11.572569-11.597129zM489.617224 726.840066l-36.372396-20.997219c-6.405897-3.713578-14.329357-3.713578-20.709671 0l-36.385698 20.997219c-6.380314 3.673669-10.354835 10.550287-10.354836 17.924232v42.006719c0 7.360641 3.961218 14.224979 10.354836 17.924232l36.372395 20.99722a20.666692 20.666692 0 0 0 10.368139 2.784416c3.582595 0 7.151887-0.928139 10.341532-2.784416l36.397978-20.99722c6.367011-3.700275 10.328229-10.56359 10.32823-17.924232v-42.006719c0.001023-7.373944-3.960195-14.250562-10.340509-17.924232z m-3.046383 59.930951a7.362688 7.362688 0 0 1-3.648087 6.341429l-36.397978 20.99722c-2.249227 1.333368-5.046946 1.307785-7.29515 0l-36.372395-20.99722a7.359618 7.359618 0 0 1-3.673669-6.341429v-42.006719a7.347339 7.347339 0 0 1 3.660366-6.341429l36.397978-20.99722a7.2798 7.2798 0 0 1 7.29515 0l36.385698 20.99722a7.345292 7.345292 0 0 1 3.648087 6.341429v42.006719zM154.475234 324.143495l-0.013303-24.840758-8.315386-0.11768c-0.026606 0-2.967588-0.104377-5.844102-1.267877-3.399423-1.385557-5.569856-2.928702-5.622044-2.967588l-6.092765-2.849908-3.935636 2.876514c-0.026606 0.013303-2.209318 1.555425-5.583159 2.928702-2.889817 1.176802-5.830799 1.281179-5.791913 1.28118l-8.393157 0.11768v24.840758c0 12.668531 14.420431 25.533536 24.788569 25.533536 10.369162 0 24.802896-12.865006 24.802896-25.534559z m-36.202527 0v-12.132319a31.778774 31.778774 0 0 0 5.844102-1.699711 51.522444 51.522444 0 0 0 5.569855-2.706645 49.454342 49.454342 0 0 0 5.583159 2.718925 31.315216 31.315216 0 0 0 5.805216 1.686408l0.013303 12.132318c0 5.085832-8.367575 12.041244-11.400654 12.145622-3.060709-0.103354-11.414981-7.058766-11.414981-12.144598z" p-id="2060" fill="#ff6a00"></path><path d="M136.622634 313.337381l-9.359159 10.780531-4.929266-4.196579-2.363837 2.781347 7.686053 6.545066 11.729136-13.512758zM461.179544 734.624357l-40.851406 31.986505h24.85713l-23.315008 30.296003 43.563168-38.247092h-23.499203zM176.779216 638.131699l-9.988492 31.456432-31.429827 9.949606 31.429827 9.988492 9.988492 31.429827 9.949606-31.429827 31.456432-9.988492-31.456432-9.949606zM869.223914 561.438992l-12.054547 38.032199-38.032198 12.054547 38.032198 12.054547 12.054547 38.032198 12.054547-38.032198 38.032198-12.054547-38.032198-12.054547-12.054547-38.032199z m1.385557 51.473325l-1.385557 4.379751-1.385556-4.379751-4.379751-1.385556 4.379751-1.385557 1.385556-4.37975 1.385557 4.37975 4.37975 1.385557-4.37975 1.385556z" p-id="2061" fill="#ff6a00"></path></svg>