<?xml version="1.0" standalone="no"?><!DOCTYPE svg PUBLIC "-//W3C//DTD SVG 1.1//EN" "http://www.w3.org/Graphics/SVG/1.1/DTD/svg11.dtd"><svg t="1598443513077" class="icon" viewBox="0 0 1024 1024" version="1.1" xmlns="http://www.w3.org/2000/svg" p-id="3804" xmlns:xlink="http://www.w3.org/1999/xlink" width="300" height="300"><defs><style type="text/css"></style></defs><path d="M621.6 483.2c0-19.7-25.6-89.3-107.1-89.3s-107.1 69.6-107.1 89.3v7.1c-0.3 24.1-0.5 41.6 27.6 70.8 32.9 34.2 37.1 54.3 35.8 64.4v19.6h87.5v-19.6c-1.3-10.1 2.9-30.2 35.8-64.4 28.1-29.2 27.9-46.6 27.6-70.8l-0.1-7.1z" fill="#ff6a00" p-id="3805"></path><path d="M908.9 644c6.4-28.9 9.9-58.5 9.9-88.3 0-31.2-3.8-62.1-10.8-92.2 30.6-17.4 51.3-50.2 51.3-87.8 0-55.7-45.3-101-101-101-15.8 0-30.7 3.7-44 10.2-53-58.6-122.7-100.8-198.8-120.5C615.2 109 570 64 514.5 64s-100.6 45-101 100.4c-76.8 19.8-147.2 62.8-200.4 122.2-14.2-7.6-30.4-11.9-47.5-11.9-55.7 0-101 45.3-101 101 0 39.4 22.8 73.6 55.8 90.2-6.7 29.4-10.2 59.5-10.2 89.9 0 29 3.3 57.8 9.3 85.8-32.5 16.8-54.9 50.7-54.9 89.7 0 55.7 45.3 101 101 101 16 0 31.2-3.9 44.6-10.5 76.9 88 187 138.3 304.2 138.3 116.4 0 225.9-49.7 302.7-136.5 12.6 5.6 26.4 8.8 41.1 8.8 55.7 0 101-45.3 101-101 0.1-37.3-20.2-69.9-50.3-87.4z m-50.6-337.3c38 0 69 30.9 69 69s-30.9 69-69 69-69-30.9-69-69 31-69 69-69zM514.5 96c38 0 69 30.9 69 69s-31 69-69 69-69-30.9-69-69 31-69 69-69zM96.7 375.7c0-38 30.9-69 69-69s69 30.9 69 69-31 69-69 69-69-31-69-69z m69 424.6c-38 0-69-31-69-69s30.9-69 69-69 69 30.9 69 69-31 69-69 69zM514.5 928c-106.9 0-207.3-45.4-278-124.8 18.6-18.3 30.1-43.8 30.1-71.9 0-55.7-45.3-101-101-101-5.3 0-10.4 0.5-15.5 1.3-5.2-24.9-7.9-50.3-7.9-75.9 0-27.1 3.1-54 8.8-80.2 4.8 0.7 9.6 1.2 14.6 1.2 55.7 0 101-45.3 101-101 0-27-10.7-51.4-28-69.5 48.1-53 111.1-91.5 179.8-109.9 13.2 40.4 51.2 69.8 96 69.8s82.8-29.3 96-69.7C678 214.5 740 251.9 787.8 303.6c-18.8 18.4-30.6 43.9-30.6 72.2 0 55.7 45.3 101 101 101 6.7 0 13.2-0.7 19.5-1.9 5.9 26.5 9 53.6 9 81 0 25.9-2.8 51.6-8.1 76.7-6.6-1.4-13.4-2.1-20.4-2.1-55.7 0-101 45.3-101 101 0 29.5 12.8 55.9 32.9 74.4C719.7 883.6 620.2 928 514.5 928z m343.8-127.7c-12.1 0-23.2-3.4-33.1-8.8-0.3-0.3-0.5-0.8-0.9-1.1-1.8-1.5-3.8-2.4-6-3-17.5-12.5-29-32.9-29-56 0-38 31-69 69-69s69 30.9 69 69-30.9 68.9-69 68.9z" fill="#ff6a00" p-id="3806"></path><path d="M574.3 694.4H454.8c-4.4 0-8 3.6-8 8s3.6 8 8 8h119.5c4.4 0 8-3.6 8-8s-3.6-8-8-8zM574.3 725.7H454.8c-4.4 0-8 3.6-8 8s3.6 8 8 8h119.5c4.4 0 8-3.6 8-8s-3.6-8-8-8zM541.9 757h-54.8c-4.4 0-8 3.6-8 8s3.6 8 8 8h54.8c4.4 0 8-3.6 8-8s-3.5-8-8-8zM653.6 483.2c0-41-42-121.3-139.1-121.3s-139.1 80.3-139.1 121.3v6.7c-0.3 25.6-0.6 54.7 36.5 93.3 23.7 24.7 26.6 36.8 27 38.9-0.1 0.6-0.1 1.3-0.1 2v37c0 8.8 7.2 16 16 16h119.5c8.8 0 16-7.2 16-16v-37c0-0.7 0-1.3-0.1-2 0.3-2.1 3.2-14.2 27-38.9 37.1-38.6 36.8-67.7 36.5-93.3l-0.1-6.7zM594.1 561c-32.9 34.2-37.1 54.3-35.8 64.4V645h-87.5v-19.6c1.3-10.1-2.9-30.2-35.8-64.4-28.1-29.2-27.9-46.6-27.6-70.8v-7.1c0-19.7 25.6-89.3 107.1-89.3s107.1 69.6 107.1 89.3v7.1c0.3 24.2 0.5 41.7-27.5 70.8z" fill="#ff6a00" p-id="3807"></path></svg>